<?xml version="1.0" encoding="UTF-8"?>
<svg viewBox="0 0 960.00006 400" xmlns="http://www.w3.org/2000/svg">
 <g transform="translate(-124.29 -326.66)" fill-rule="evenodd" stroke="#000">
  <g transform="matrix(8.4484 0 0 8.4484 124.29 326.65)">
   <path d="m111.48 5.4067c1.0953 0 1.978 0.86695 1.978 1.9427v32.647c0 1.0757-0.88273 1.9427-1.978 1.9427h-109.32c-1.0953 0-1.978-0.86696-1.978-1.9427v-12.728c1.9366-0.10296 3.4808-1.6675 3.4808-3.5952s-1.5442-3.4923-3.4808-3.5953v-12.728c0-1.0757 0.88273-1.9427 1.978-1.9427h109.32z" fill="#333" stroke-width=".3551"/>
   <path d="m6.946 7.044h101.16c1.4492 0 2.6158 1.1667 2.6158 2.6158v28.027c0 1.4492-1.1666 2.6158-2.6158 2.6158h-101.16c-1.4492 0-2.6158-1.1667-2.6158-2.6158v-28.027c0-1.4492 1.1667-2.6158 2.6158-2.6158z" fill="#ccc" stroke-linecap="round" stroke-width=".23673"/>
  </g>
  <path d="m160.91 327.66v6.0625l-8.5625 26.375v12.25h37.812v-12.25l-8.5312-26.375v-6.0625h-20.719zm45.562 0v6.0625l-8.5625 26.375v12.25h37.812v-12.25l-8.5312-26.375v-6.0625h-20.719zm45.531 0v6.0625l-8.5312 26.375v12.25h37.812v-12.25l-8.5312-26.375v-6.0625h-20.75zm45.562 0v6.0625l-8.5312 26.375v12.25h37.812v-12.25l-8.5312-26.375v-6.0625h-20.75zm45.562 0v6.0625l-8.5312 26.375v12.25h37.812v-12.25l-8.5312-26.375v-6.0625h-20.75zm45.562 0v6.0625l-8.5312 26.375v12.25h37.812v-12.25l-8.5312-26.375v-6.0625h-20.75zm45.562 0v6.0625l-8.5312 26.375v12.25h37.812v-12.25l-8.5312-26.375v-6.0625h-20.75zm45.562 0v6.0625l-8.5312 26.375v12.25h37.812v-12.25l-8.5312-26.375v-6.0625h-20.75zm45.562 0v6.0625l-8.5312 26.375v12.25h37.812v-12.25l-8.5625-26.375v-6.0625h-20.719zm45.562 0v6.0625l-8.5312 26.375v12.25h37.812v-12.25l-8.5625-26.375v-6.0625h-20.719zm45.969 0v6.0625l-8.5625 26.375v12.25h37.812v-12.25l-8.5312-26.375v-6.0625h-20.719zm45.562 0v6.0625l-8.5625 26.375v12.25h37.812v-12.25l-8.5312-26.375v-6.0625h-20.719zm45.531 0v6.0625l-8.5312 26.375v12.25h37.812v-12.25l-8.5312-26.375v-6.0625h-20.75zm45.562 0v6.0625l-8.5312 26.375v12.25h37.812v-12.25l-8.5312-26.375v-6.0625h-20.75zm45.562 0v6.0625l-8.5312 26.375v12.25h37.812v-12.25l-8.5312-26.375v-6.0625h-20.75zm45.562 0v6.0625l-8.5312 26.375v12.25h37.812v-12.25l-8.5312-26.375v-6.0625h-20.75zm45.562 0v6.0625l-8.5312 26.375v12.25h37.812v-12.25l-8.5312-26.375v-6.0625h-20.75zm45.562 0v6.0625l-8.5312 26.375v12.25h37.812v-12.25l-8.5312-26.375v-6.0625h-20.75zm45.562 0v6.0625l-8.5312 26.375v12.25h37.812v-12.25l-8.5624-26.375v-6.0625h-20.719zm45.562 0v6.0625l-8.5313 26.375v12.25h37.813v-12.25l-8.5626-26.375v-6.0625h-20.719z" fill="#999" stroke-width="2"/>
  <path d="m152.35 680.97v12.25l8.5625 26.375v6.0625h20.719v-6.0625l8.5312-26.375v-12.25h-37.812zm45.562 0v12.25l8.5625 26.375v6.0625h20.719v-6.0625l8.5312-26.375v-12.25h-37.812zm45.562 0v12.25l8.5312 26.375v6.0625h20.75v-6.0625l8.5312-26.375v-12.25h-37.812zm45.562 0v12.25l8.5312 26.375v6.0625h20.75v-6.0625l8.5312-26.375v-12.25h-37.812zm45.562 0v12.25l8.5312 26.375v6.0625h20.75v-6.0625l8.5312-26.375v-12.25h-37.812zm45.562 0v12.25l8.5312 26.375v6.0625h20.75v-6.0625l8.5312-26.375v-12.25h-37.812zm45.562 0v12.25l8.5312 26.375v6.0625h20.75v-6.0625l8.5312-26.375v-12.25h-37.812zm45.562 0v12.25l8.5312 26.375v6.0625h20.75v-6.0625l8.5312-26.375v-12.25h-37.812zm45.562 0v12.25l8.5312 26.375v6.0625h20.719v-6.0625l8.5625-26.375v-12.25h-37.812zm45.562 0v12.25l8.5312 26.375v6.0625h20.719v-6.0625l8.5625-26.375v-12.25h-37.812zm45.938 0v12.25l8.5625 26.375v6.0625h20.719v-6.0625l8.5312-26.375v-12.25h-37.812zm45.562 0v12.25l8.5625 26.375v6.0625h20.719v-6.0625l8.5312-26.375v-12.25h-37.812zm45.562 0v12.25l8.5312 26.375v6.0625h20.75v-6.0625l8.5312-26.375v-12.25h-37.812zm45.562 0v12.25l8.5312 26.375v6.0625h20.75v-6.0625l8.5312-26.375v-12.25h-37.812zm45.562 0v12.25l8.5312 26.375v6.0625h20.75v-6.0625l8.5312-26.375v-12.25h-37.812zm45.562 0v12.25l8.5312 26.375v6.0625h20.75v-6.0625l8.5312-26.375v-12.25h-37.812zm45.562 0v12.25l8.5312 26.375v6.0625h20.75v-6.0625l8.5312-26.375v-12.25h-37.812zm45.562 0v12.25l8.5312 26.375v6.0625h20.75v-6.0625l8.5312-26.375v-12.25h-37.812zm45.562 0v12.25l8.5312 26.375v6.0625h20.719v-6.0625l8.5624-26.375v-12.25h-37.812zm45.562 0v12.25l8.5313 26.375v6.0625h20.719v-6.0625l8.5626-26.375v-12.25h-37.813z" fill="#999" stroke-width="2"/>
 </g>
</svg>
